<?xml version="1.0" encoding="iso-8859-1"?>
<!-- Generator: Adobe Illustrator 19.0.0, SVG Export Plug-In . SVG Version: 6.00 Build 0)  -->
<svg version="1.1" id="Layer_1" xmlns="http://www.w3.org/2000/svg" xmlns:xlink="http://www.w3.org/1999/xlink" x="0px" y="0px"
	 viewBox="0 0 512.001 512.001" style="enable-background:new 0 0 512.001 512.001;" xml:space="preserve">
<g>
	<path style="fill:#F7B239;" d="M60.279,91.072c-5.178,0-9.375-4.197-9.375-9.375V62.701c0-5.177,4.196-9.375,9.375-9.375
		s9.375,4.197,9.375,9.375v18.997C69.654,86.874,65.457,91.072,60.279,91.072z"/>
	<path style="fill:#F7B239;" d="M60.279,165.819c-5.178,0-9.375-4.197-9.375-9.375v-18.995c0-5.177,4.196-9.375,9.375-9.375
		s9.375,4.197,9.375,9.375v18.995C69.654,161.622,65.457,165.819,60.279,165.819z"/>
	<path style="fill:#F7B239;" d="M107.151,118.948H88.154c-5.178,0-9.375-4.197-9.375-9.375c0-5.177,4.196-9.375,9.375-9.375h18.995
		c5.178,0,9.375,4.197,9.375,9.375C116.524,114.75,112.328,118.948,107.151,118.948z"/>
	<path style="fill:#F7B239;" d="M32.403,118.948H13.408c-5.178,0-9.375-4.197-9.375-9.375c0-5.177,4.196-9.375,9.375-9.375h18.995
		c5.178,0,9.375,4.197,9.375,9.375C41.778,114.75,37.581,118.948,32.403,118.948z"/>
</g>
<g>
	<path style="fill:#CC1B5B;" d="M473.517,250.736c-5.178,0-9.375-4.197-9.375-9.375v-8.202c0-5.177,4.196-9.375,9.375-9.375
		c5.178,0,9.375,4.197,9.375,9.375v8.202C482.891,246.539,478.695,250.736,473.517,250.736z"/>
	<path style="fill:#CC1B5B;" d="M473.517,292.685c-5.178,0-9.375-4.197-9.375-9.375v-8.202c0-5.177,4.196-9.375,9.375-9.375
		c5.178,0,9.375,4.197,9.375,9.375v8.202C482.891,288.488,478.695,292.685,473.517,292.685z"/>
	<path style="fill:#CC1B5B;" d="M498.593,267.61h-8.203c-5.178,0-9.375-4.197-9.375-9.375c0-5.177,4.196-9.375,9.375-9.375h8.203
		c5.178,0,9.375,4.197,9.375,9.375C507.968,263.413,503.77,267.61,498.593,267.61z"/>
	<path style="fill:#CC1B5B;" d="M456.644,267.61h-8.203c-5.178,0-9.375-4.197-9.375-9.375c0-5.177,4.196-9.375,9.375-9.375h8.203
		c5.178,0,9.375,4.197,9.375,9.375C466.019,263.413,461.823,267.61,456.644,267.61z"/>
</g>
<path style="fill:#F24C8F;" d="M249.641,9.375c15.099,0,27.349,12.249,27.349,27.349s-12.249,27.349-27.349,27.349
	s-27.349-12.249-27.349-27.349S234.542,9.375,249.641,9.375z"/>
<path style="fill:#E09B2D;" d="M478.367,358.219v75.784H20.903v-75.784l13.399,9.749c14.737,10.712,34.711,10.724,49.447,0
	l13.399-9.749l13.387,9.749c14.749,10.712,34.723,10.712,49.46-0.013l13.387-9.737l13.387,9.749
	c14.737,10.712,34.711,10.712,49.46,0l13.387-9.749l13.399,9.749c14.737,10.724,34.711,10.724,49.447,0l13.399-9.749l13.399,9.749
	c14.737,10.724,34.711,10.724,49.447,0l13.399-9.749l13.412,9.749c14.737,10.724,34.698,10.724,49.447,0L478.367,358.219z"/>
<path style="fill:#F7B239;" d="M430.994,358.219v75.784H68.275v-75.784l10.624,9.749c11.684,10.712,27.522,10.724,39.207,0
	l10.624-9.749l10.614,9.749c11.694,10.712,27.531,10.712,39.217-0.013l10.614-9.737l10.614,9.749
	c11.684,10.712,27.522,10.712,39.217,0l10.614-9.749l10.624,9.749c11.684,10.724,27.522,10.724,39.207,0l10.624-9.749l10.624,9.749
	c11.684,10.724,27.522,10.724,39.207,0l10.624-9.749l10.634,9.749c11.684,10.724,27.512,10.724,39.207,0L430.994,358.219z"/>
<rect x="20.903" y="434.003" style="fill:#995C0D;" width="457.464" height="68.621"/>
<rect x="68.275" y="434.003" style="fill:#B27214;" width="362.719" height="68.621"/>
<rect x="88.574" y="269.736" style="fill:#2197D8;" width="322.133" height="49.91"/>
<path style="fill:#E09B2D;" d="M410.708,208.377v61.359H88.574v-61.359l8.037,6.925c13.899,11.949,34.448,11.949,48.335,0
	l8.037-6.925l8.05,6.925c13.887,11.949,34.436,11.949,48.323,0l8.05-6.925l8.05,6.925c13.899,11.949,34.436,11.949,48.335,0
	l8.05-6.925l8.05,6.925c13.887,11.949,34.436,11.949,48.323,0l8.062-6.925l8.05,6.937c13.899,11.949,34.436,11.949,48.323,0
	L410.708,208.377z"/>
<rect x="130.781" y="269.736" style="fill:#2BA5F7;" width="237.713" height="49.91"/>
<path style="fill:#F7B239;" d="M368.499,189.628v80.108H130.786v-80.108l5.931,9.041c10.257,15.6,25.42,15.6,35.668,0l5.931-9.041
	l5.94,9.041c10.247,15.6,25.411,15.6,35.658,0l5.94-9.041l5.94,9.041c10.257,15.6,25.411,15.6,35.668,0l5.94-9.041l5.94,9.041
	c10.247,15.6,25.411,15.6,35.658,0l5.95-9.041l5.94,9.057c10.257,15.6,25.411,15.6,35.659,0L368.499,189.628z"/>
<path style="fill:#E09B2D;" d="M351.948,105.52v58.197H147.334V105.52c0-4.3,0.65-8.437,1.862-12.337l8.7,7.062
	c13.712,11.149,33.361,11.149,47.073,0l10.562-8.587l10.562,8.587c13.712,11.149,33.373,11.149,47.073,0l10.574-8.587l10.562,8.587
	c13.712,11.149,33.361,11.149,47.073,0l8.7-7.075C351.286,97.07,351.948,101.22,351.948,105.52z"/>
<path style="fill:#F7B239;" d="M319.75,94.415v69.301H179.532V94.415c0-5.12,0.445-10.047,1.276-14.69l5.962,8.41
	c9.397,13.277,22.861,13.277,32.258,0l7.238-10.226l7.238,10.226c9.397,13.277,22.87,13.277,32.258,0l7.246-10.226l7.238,10.226
	c9.397,13.277,22.861,13.277,32.258,0l5.962-8.425C319.296,84.353,319.75,89.294,319.75,94.415z"/>
<g>
	<path style="fill:#F24C8F;" d="M478.367,357.019v1.2l-13.399,9.749c-14.749,10.724-34.711,10.724-49.447,0l-13.412-9.749
		l-13.399,9.749c-14.737,10.724-34.711,10.724-49.447,0l-13.399-9.749l-13.399,9.749c-14.737,10.724-34.711,10.724-49.447,0
		l-13.399-9.749l-13.387,9.749c-14.749,10.712-34.723,10.712-49.46,0l-13.387-9.749l-13.387,9.737
		c-14.737,10.724-34.711,10.724-49.46,0.013l-13.387-9.749l-13.399,9.749c-14.737,10.724-34.711,10.712-49.447,0l-13.399-9.749v-1.2
		c0-20.636,16.737-37.373,37.386-37.373h30.286h322.133h30.273C461.63,319.646,478.367,336.383,478.367,357.019z"/>
	<path style="fill:#F24C8F;" d="M147.334,163.717h204.615h21.374c20.649,0,37.386,16.737,37.386,37.386v7.275l-8.062,6.937
		c-13.887,11.949-34.423,11.949-48.323,0l-8.05-6.937l-8.062,6.925c-13.887,11.949-34.436,11.949-48.323,0l-8.05-6.925l-8.05,6.925
		c-13.899,11.949-34.436,11.949-48.335,0l-8.05-6.925l-8.05,6.925c-13.887,11.949-34.436,11.949-48.323,0l-8.05-6.925l-8.037,6.925
		c-13.887,11.949-34.436,11.949-48.335,0l-8.037-6.925v-7.275c0-20.649,16.737-37.386,37.373-37.386H147.334z"/>
</g>
<path style="fill:#2BA5F7;" d="M350.073,93.17l-8.7,7.075c-13.712,11.149-33.361,11.149-47.073,0l-10.562-8.587l-10.574,8.587
	c-13.699,11.149-33.361,11.149-47.073,0l-10.562-8.587l-10.562,8.587c-13.712,11.149-33.361,11.149-47.073,0l-8.7-7.062
	c5.262-16.862,20.999-29.111,39.61-29.111h60.834h60.834C329.074,64.072,344.811,76.309,350.073,93.17z"/>
<path d="M440.987,310.268h-20.904V201.105c0-25.781-20.975-46.758-46.756-46.758h-12.008V105.52
	c0-28.025-22.806-50.826-50.84-50.826h-28.834c2.997-5.317,4.717-11.446,4.717-17.972C286.363,16.473,269.889,0,249.641,0
	s-36.722,16.473-36.722,36.722c0,6.526,1.719,12.656,4.717,17.972h-28.834c-28.034,0-50.84,22.8-50.84,50.826v48.827h-12.009
	c-25.782,0-46.758,20.975-46.758,46.758v109.163H58.292c-25.781,0-46.756,20.975-46.756,46.758v145.601
	c0,5.177,4.196,9.375,9.375,9.375h457.46c5.178,0,9.375-4.197,9.375-9.375V357.024C487.745,331.243,466.77,310.268,440.987,310.268z
	 M30.285,376.589c17.915,12.098,41.392,11.752,58.984-1.044l7.878-5.73l7.878,5.73c18.088,13.157,42.395,13.156,60.486-0.003
	l7.871-5.726l7.875,5.727c18.09,13.158,42.397,13.161,60.487,0l7.875-5.728l7.883,5.732c18.087,13.153,42.392,13.156,60.481,0
	l7.883-5.732l7.885,5.733c18.088,13.154,42.392,13.156,60.479,0l7.886-5.735l7.892,5.74c9.043,6.576,19.639,9.864,30.236,9.863
	c10.023,0,20.048-2.947,28.756-8.832v48.046H30.285V376.589z M97.944,227.65c16.788,9.575,37.922,7.831,53.117-5.25l1.926-1.66
	l1.931,1.661c17.547,15.103,43.014,15.102,60.558,0l1.931-1.662l1.937,1.666c17.543,15.099,43.012,15.099,60.554,0l1.937-1.667
	l1.939,1.667c17.544,15.099,43.012,15.099,60.553,0l1.94-1.67l1.947,1.675c8.771,7.547,19.522,11.321,30.273,11.321
	c7.876,0,15.748-2.034,22.845-6.083v32.712H97.944V227.65z M231.668,36.722c0-9.911,8.062-17.973,17.973-17.973
	c9.911,0,17.973,8.062,17.973,17.973c0,9.909-8.062,17.972-17.973,17.972C239.73,54.693,231.668,46.631,231.668,36.722z
	 M188.803,73.442h121.676c12.194,0,22.821,6.836,28.25,16.874l-3.269,2.657c-10.209,8.301-25.032,8.301-35.242,0l-10.569-8.593
	c-3.447-2.801-8.383-2.801-11.828,0l-10.563,8.588c-10.213,8.303-25.035,8.302-35.246,0l-10.562-8.588
	c-3.445-2.801-8.383-2.801-11.828,0l-10.561,8.587c-10.211,8.303-25.034,8.305-35.247,0l-3.261-2.651
	C165.98,80.28,176.607,73.442,188.803,73.442z M156.712,110.884c16.685,10.394,38.631,9.275,54.176-3.367l4.647-3.779l4.648,3.779
	c17.063,13.874,41.834,13.876,58.902,0l4.65-3.78l4.656,3.785c8.533,6.937,18.989,10.406,29.45,10.404
	c8.601,0,17.2-2.352,24.73-7.043v43.463H156.712V110.884z M125.954,173.096h247.374c15.443,0,28.007,12.564,28.007,28.009v2.966
	l-4.801,4.131c-10.456,8.997-25.634,8.997-36.089,0l-8.062-6.937c-3.516-3.025-8.715-3.025-12.229,0l-8.053,6.932
	c-10.454,8.998-25.635,9-36.092,0l-8.053-6.931c-3.516-3.026-8.716-3.026-12.231,0l-8.052,6.931
	c-10.456,8.998-25.635,9.001-36.093,0l-8.052-6.931c-3.516-3.026-8.716-3.025-12.231,0l-8.047,6.927c-10.459,9.002-25.64,9-36.097,0
	l-8.047-6.926c-3.516-3.027-8.717-3.026-12.232,0l-8.043,6.925c-10.456,9.002-25.637,9.005-36.096,0.001l-4.789-4.121v-2.966
	C97.944,185.66,110.509,173.096,125.954,173.096z M97.944,279.112h303.391v31.156H97.944V279.112z M58.292,329.017h382.695
	c14.286,0,26.1,10.754,27.792,24.59l-9.331,6.783c-11.488,8.355-26.929,8.356-38.419,0l-13.408-9.748
	c-3.286-2.39-7.74-2.39-11.026,0l-13.398,9.743c-11.491,8.358-26.934,8.357-38.424,0l-13.398-9.743
	c-3.286-2.391-7.741-2.391-11.027,0l-13.397,9.743c-11.491,8.357-26.932,8.358-38.426,0l-13.397-9.743
	c-3.286-2.391-7.74-2.391-11.028,0l-13.389,9.739c-11.491,8.36-26.936,8.36-38.427,0l-13.389-9.739
	c-3.289-2.391-7.741-2.391-11.029,0l-13.386,9.738c-11.492,8.361-26.936,8.361-38.428,0.001l-13.392-9.739
	c-3.286-2.391-7.741-2.391-11.027,0l-13.393,9.739c-11.488,8.358-26.932,8.36-38.426,0l-9.315-6.776
	C32.192,339.771,44.005,329.017,58.292,329.017z M30.285,493.251v-49.87h438.711v49.87H30.285z"/>
<g>
</g>
<g>
</g>
<g>
</g>
<g>
</g>
<g>
</g>
<g>
</g>
<g>
</g>
<g>
</g>
<g>
</g>
<g>
</g>
<g>
</g>
<g>
</g>
<g>
</g>
<g>
</g>
<g>
</g>
</svg>
