<svg id="ICON" xmlns="http://www.w3.org/2000/svg" viewBox="0 0 512 512"><defs><style>.cls-1{fill:#bf7632;}.cls-2{fill:#c88b56;}.cls-3{fill:#d1a480;}.cls-4{fill:#484c55;}.cls-5{fill:#383b41;}.cls-6{fill:#e9f674;}.cls-7,.cls-9{fill:#6d4420;}.cls-7{opacity:0.25;}.cls-8{fill:#ab682e;}.cls-10{fill:#e69d5a;}</style></defs><title>Cooking</title><path class="cls-1" d="M299.94,64l-15.53,75.09H247.89L232.38,64a29.75,29.75,0,0,1,29.13-35.77h9.28A29.75,29.75,0,0,1,299.94,64Z"/><rect class="cls-1" x="247.86" y="138.11" width="36.53" height="14.23"/><rect class="cls-1" x="134.19" y="404.05" width="241.69" height="24.19" rx="11.4"/><rect class="cls-2" x="149.24" y="380.19" width="241.69" height="24.19" rx="11.4"/><rect class="cls-3" x="134.19" y="358.4" width="241.69" height="24.19" rx="11.4"/><rect class="cls-1" x="140.71" y="334.4" width="241.69" height="24.19" rx="11.4"/><rect class="cls-3" x="131.51" y="311.98" width="241.69" height="24.19" rx="11.4"/><path class="cls-4" d="M386.79,440.35v15.7c0,6.33-10.4,11.46-23.22,11.46H151.87c-12.82,0-23.22-5.13-23.22-11.46v-15.7Z"/><path class="cls-4" d="M436,420.84c0,10.38-18.71,19.82-49.21,26.8C354,455.16,307.52,459.86,256,459.86q-10.35,0-20.41-.26c-41.6-1-78.88-5.1-106.94-11.19C96.11,441.35,76,431.61,76,420.84Z"/><path class="cls-5" d="M254.31,467.51H151.87c-12.82,0-23.22-5.13-23.22-11.46v-7.64C96.11,441.35,76,431.61,76,420.84H191.94a81.91,81.91,0,0,0,15.67,19.51,118.51,118.51,0,0,0,28,19.25A148.92,148.92,0,0,0,254.31,467.51Z"/><rect class="cls-6" x="208.62" y="275.96" width="78.26" height="40.58" rx="17.22"/><rect class="cls-6" x="161.05" y="295.96" width="186.44" height="20.54" rx="10.27"/><path class="cls-6" d="M173,346.15h0a11.89,11.89,0,0,1-11.89-11.9l0-28.44h23.79l0,28.44A11.89,11.89,0,0,1,173,346.15Z"/><path class="cls-6" d="M323.7,306.23h23.78a0,0,0,0,1,0,0v28.45a11.89,11.89,0,0,1-11.89,11.89h0a11.89,11.89,0,0,1-11.89-11.89V306.23A0,0,0,0,1,323.7,306.23Z"/><path class="cls-6" d="M203.63,301.59h44.12a0,0,0,0,1,0,0v45.49a19.46,19.46,0,0,1-19.46,19.46h-5.19a19.46,19.46,0,0,1-19.46-19.46V301.59A0,0,0,0,1,203.63,301.59Z"/><path class="cls-7" d="M262.24,154.65c.87,5.74,1.93,11.61,3.18,17.55v1.47c-12.49,0-22.63-6.16-22.63-13.78,0-3.41,2.06-6.55,5.07-8.95V139.08h0L232.38,64a29.75,29.75,0,0,1,29.13-35.77h4.54l.1.13s-12.68,47.52-5.93,110.73c.25,2.39.54,4.83.85,7.28.25,2,.52,4,.81,6C262,153.09,262.11,153.86,262.24,154.65Z"/><path class="cls-8" d="M288.07,159.89c0,7.62-10.14,13.78-22.65,13.78s-22.63-6.16-22.63-13.78c0-3.41,2.06-6.55,5.46-8.95a27.74,27.74,0,0,1,12.82-4.58,38.54,38.54,0,0,1,4.35-.25c7.75,0,14.57,2.35,18.65,6A10.44,10.44,0,0,1,288.07,159.89Z"/><ellipse class="cls-9" cx="265.42" cy="163.31" rx="14.6" ry="8.89"/><rect class="cls-10" x="254.85" y="163.31" width="22.62" height="128.66" rx="11.31"/><ellipse class="cls-10" cx="267.16" cy="299.24" rx="28.04" ry="25.77"/><ellipse class="cls-10" cx="306.14" cy="295.96" rx="18.07" ry="16.61"/><rect class="cls-10" x="297.25" y="299.24" width="16.55" height="93.04" rx="8.27"/><rect class="cls-10" x="250.83" y="289.39" width="15.33" height="178.12" rx="7.67"/><ellipse class="cls-10" cx="225.3" cy="460.44" rx="36.25" ry="16.27"/><ellipse class="cls-10" cx="270.08" cy="467.51" rx="23.31" ry="16.27"/></svg>