<svg xmlns="http://www.w3.org/2000/svg" viewBox="0 0 64 64"><defs><style>.cls-1{isolation:isolate;}.cls-2{fill:red;}.cls-3,.cls-9{fill:#fff;}.cls-4{fill:#db9d53;}.cls-5{fill:#fea621;}.cls-6{fill:none;stroke:#000;stroke-linecap:round;stroke-linejoin:round;stroke-width:2px;}.cls-7{opacity:0.25;mix-blend-mode:multiply;}.cls-8,.cls-9{mix-blend-mode:overlay;}</style></defs><title>Icon Color</title><g class="cls-1"><g id="Layer_1" data-name="Layer 1"><g id="Vector"><path class="cls-2" d="M27.36,11.51H16a5.68,5.68,0,0,1,10.4-3.15,5.5,5.5,0,0,1,.87,2.26A4.27,4.27,0,0,1,27.36,11.51Z"/><circle class="cls-2" cx="40.97" cy="8.22" r="3.3"/><path class="cls-2" d="M37.67,7.47a5.69,5.69,0,0,1-1.69,4H28a5.93,5.93,0,0,1-.74-.89,5.19,5.19,0,0,1-.87-2.26,3.68,3.68,0,0,1-.09-.89,5.68,5.68,0,1,1,11.35,0Z"/><polygon class="cls-3" points="37.26 54.3 26.74 54.3 2.77 54.3 7.61 62.21 26.74 62.21 37.26 62.21 56.4 62.21 61.23 54.3 37.26 54.3"/><rect class="cls-4" x="4.7" y="46.38" width="54.61" height="7.92" rx="1.8"/><rect class="cls-4" x="6.88" y="32.42" width="50.25" height="7.92" rx="1.8"/><path class="cls-4" d="M13.73,27.36H9.83a3,3,0,0,1-2.95-3v-2a3,3,0,0,1,3-3h3.88v7.67A1.06,1.06,0,0,0,13.73,27.36Z"/><path class="cls-4" d="M41.22,27.11a1.06,1.06,0,0,0,0,.25H21.38a1.06,1.06,0,0,0,0-.25V23a3.84,3.84,0,1,0,7.68,0V19.44H41.22Z"/><path class="cls-4" d="M57.12,22.4v2a3,3,0,0,1-3,3H48.89a1.06,1.06,0,0,0,0-.25V19.44h5.25A3,3,0,0,1,57.12,22.4Z"/><rect class="cls-5" x="9.26" y="41.32" width="45.47" height="5.07" rx="1.15"/><path class="cls-5" d="M54.74,29.25v1.28a1.89,1.89,0,0,1-1.89,1.89H11.15a1.89,1.89,0,0,1-1.89-1.89V29.25a1.89,1.89,0,0,1,1.89-1.89h2.58a3.83,3.83,0,0,0,7.65,0H41.24a3.83,3.83,0,0,0,7.65,0h4A1.89,1.89,0,0,1,54.74,29.25Z"/><path class="cls-5" d="M57.12,15.47a4,4,0,0,1-4,4H48.91v7.67a1.06,1.06,0,0,1,0,.25,3.83,3.83,0,0,1-7.65,0,1.06,1.06,0,0,1,0-.25V19.44H29.08V23a3.84,3.84,0,1,1-7.68,0v4.15a1.06,1.06,0,0,1,0,.25,3.83,3.83,0,0,1-7.65,0,1.06,1.06,0,0,1,0-.25V19.44H10.84a4,4,0,0,1,0-7.93H53.16A4,4,0,0,1,57.12,15.47Z"/></g><g id="Line"><path class="cls-6" d="M27.36,11.51H16a5.68,5.68,0,0,1,10.4-3.15,5.5,5.5,0,0,1,.87,2.26A4.27,4.27,0,0,1,27.36,11.51Z"/><circle class="cls-6" cx="40.97" cy="8.22" r="3.3"/><path class="cls-6" d="M37.67,7.47a5.69,5.69,0,0,1-1.69,4H28a5.93,5.93,0,0,1-.74-.89,5.19,5.19,0,0,1-.87-2.26,3.68,3.68,0,0,1-.09-.89,5.68,5.68,0,1,1,11.35,0Z"/><polygon class="cls-6" points="37.26 54.3 26.74 54.3 2.77 54.3 7.61 62.21 26.74 62.21 37.26 62.21 56.4 62.21 61.23 54.3 37.26 54.3"/><rect class="cls-6" x="4.7" y="46.38" width="54.61" height="7.92" rx="1.8"/><rect class="cls-6" x="6.88" y="32.42" width="50.25" height="7.92" rx="1.8"/><path class="cls-6" d="M13.73,27.36H9.83a3,3,0,0,1-2.95-3v-2a3,3,0,0,1,3-3h3.88v7.67A1.06,1.06,0,0,0,13.73,27.36Z"/><path class="cls-6" d="M41.22,27.11a1.06,1.06,0,0,0,0,.25H21.38a1.06,1.06,0,0,0,0-.25V23a3.84,3.84,0,1,0,7.68,0V19.44H41.22Z"/><path class="cls-6" d="M57.12,22.4v2a3,3,0,0,1-3,3H48.89a1.06,1.06,0,0,0,0-.25V19.44h5.25A3,3,0,0,1,57.12,22.4Z"/><rect class="cls-6" x="9.26" y="41.32" width="45.47" height="5.07" rx="1.15"/><path class="cls-6" d="M54.74,29.25v1.28a1.89,1.89,0,0,1-1.89,1.89H11.15a1.89,1.89,0,0,1-1.89-1.89V29.25a1.89,1.89,0,0,1,1.89-1.89h2.58a3.83,3.83,0,0,0,7.65,0H41.24a3.83,3.83,0,0,0,7.65,0h4A1.89,1.89,0,0,1,54.74,29.25Z"/><path class="cls-6" d="M57.12,15.47a4,4,0,0,1-4,4H48.91v7.67a1.06,1.06,0,0,1,0,.25,3.83,3.83,0,0,1-7.65,0,1.06,1.06,0,0,1,0-.25V19.44H29.08V23a3.84,3.84,0,1,1-7.68,0v4.15a1.06,1.06,0,0,1,0,.25,3.83,3.83,0,0,1-7.65,0,1.06,1.06,0,0,1,0-.25V19.44H10.84a4,4,0,0,1,0-7.93H53.16A4,4,0,0,1,57.12,15.47Z"/></g><g id="Shadow" class="cls-7"><path d="M37.05,40.34H55.32a1.79,1.79,0,0,0,1.8-1.8V34.22a1.8,1.8,0,0,0-1.8-1.8H37.05a1.81,1.81,0,0,1,1.8,1.8v4.32A1.8,1.8,0,0,1,37.05,40.34Z"/><path d="M19.29,6.37a5.65,5.65,0,0,1-1.58,5.14h4.93A3.28,3.28,0,0,1,20.25,6,6.44,6.44,0,0,0,19.29,6.37Z"/><path d="M26,7.77a3.42,3.42,0,0,1,0,.45,3.29,3.29,0,0,1-3.23,3.29h4.6a4.27,4.27,0,0,0-.08-.89,5.93,5.93,0,0,0,.74.89h6.87a4,4,0,0,1,0,7.93h1a3,3,0,0,1,3,3v2a3,3,0,0,1-3,3H34.58a1.89,1.89,0,0,1,1.89,1.89v1.28a1.89,1.89,0,0,1-1.89,1.89H52.85a1.89,1.89,0,0,0,1.89-1.89V29.25a1.89,1.89,0,0,0-1.89-1.89h1.31a3,3,0,0,0,3-3v-2a3,3,0,0,0-3-3h-1a4,4,0,0,0,0-7.93H41a3.29,3.29,0,1,0-.12,0H36a5.68,5.68,0,1,0-9.66-4,3.68,3.68,0,0,0,.09.89A6.65,6.65,0,0,0,26,7.77Z"/><path d="M57.5,54.3a1.79,1.79,0,0,0,1.8-1.8V48.18a1.8,1.8,0,0,0-1.8-1.8H53.59a1.15,1.15,0,0,0,1.15-1.15V42.47a1.15,1.15,0,0,0-1.15-1.15H35.31a1.14,1.14,0,0,1,1.15,1.15v2.76a1.14,1.14,0,0,1-1.15,1.15h3.92a1.81,1.81,0,0,1,1.8,1.8V52.5a1.8,1.8,0,0,1-1.8,1.8H43l-4.84,7.91H56.39l4.84-7.91Z"/></g><g id="Highligth" class="cls-8"><path class="cls-9" d="M41.86,10.62a3.47,3.47,0,0,1,.08.73,2.86,2.86,0,0,0,.41-.15A4.68,4.68,0,0,1,41.86,10.62Z"/><path class="cls-9" d="M41,8.36a4.27,4.27,0,0,1-.08-.89A5.6,5.6,0,0,1,41.49,5,3,3,0,0,0,41,4.92a3.27,3.27,0,0,0-2.62,1.32A5.74,5.74,0,0,1,41,8.36Z"/><path class="cls-9" d="M21.08,54.3a1.8,1.8,0,0,1-1.8-1.8V48.18a1.81,1.81,0,0,1,1.8-1.8H25a1.14,1.14,0,0,1-1.15-1.15V42.47A1.14,1.14,0,0,1,25,41.32H10.41a1.15,1.15,0,0,0-1.15,1.15v2.76a1.15,1.15,0,0,0,1.15,1.15H6.5a1.8,1.8,0,0,0-1.8,1.8V52.5a1.79,1.79,0,0,0,1.8,1.8H2.77l4.84,7.91H22.19L17.35,54.3Z"/><path class="cls-9" d="M9.83,27.36h1.32a1.89,1.89,0,0,0-1.89,1.89v1.28a1.89,1.89,0,0,0,1.89,1.89H25.73a1.89,1.89,0,0,1-1.89-1.89V29.25a1.89,1.89,0,0,1,1.89-1.89H24.42a3,3,0,0,1-3-3v-2a3,3,0,0,1,3-3h1a4,4,0,0,1,0-7.93h1.94a4.27,4.27,0,0,0-.08-.89,5.93,5.93,0,0,0,.74.89h2.57a5.67,5.67,0,0,1,5.67-5.67A6,6,0,0,1,37.47,6,5.67,5.67,0,0,0,26.32,7.47a3.68,3.68,0,0,0,.09.89A5.68,5.68,0,0,0,16,11.51H10.84a4,4,0,0,0,0,7.93h-1a3,3,0,0,0-2.95,3v2A3,3,0,0,0,9.83,27.36Z"/><path class="cls-9" d="M8.68,40.34H23.26a1.8,1.8,0,0,1-1.8-1.8V34.22a1.81,1.81,0,0,1,1.8-1.8H8.68a1.8,1.8,0,0,0-1.8,1.8v4.32A1.79,1.79,0,0,0,8.68,40.34Z"/></g></g></g></svg>