<svg xmlns="http://www.w3.org/2000/svg" viewBox="0 0 48 48"><title>25-Piece of cake</title><g id="_25-Piece_of_cake" data-name="25-Piece of cake"><path d="M47,46H1a1,1,0,0,1-1-1V24.013a1,1,0,0,1,.533-.9l12-6.334.934,1.769L5.037,23H39.465l3.123-4.685A2.954,2.954,0,0,1,48,19.954V45A1,1,0,0,1,47,46ZM2,44H46V19.954a.954.954,0,0,0-1.748-.529l-3.42,5.13A1,1,0,0,1,40,25H2Z"/><rect x="20.45" y="10.222" width="9.522" height="2" transform="translate(-2.323 13.067) rotate(-27.829)"/><path d="M39.032,24.25c-.025-.1-2.587-9.681-10.141-14.4a1,1,0,0,1-.409-1.194l2.107-5.716A2.973,2.973,0,0,1,33.368,1a2.915,2.915,0,0,1,1.735.556c4.648,3.4,11.717,11.3,12.883,18.232l-1.972.332C44.941,13.743,38.3,6.37,33.923,3.17a1.014,1.014,0,0,0-1.457.459L30.635,8.6c7.708,5.262,10.227,14.739,10.334,15.151Z"/><path d="M18,12H16A12.342,12.342,0,0,1,23.606,1.081l.788,1.838A10.46,10.46,0,0,0,18,12Z"/><path d="M17.5,22A5.5,5.5,0,1,1,23,16.5,5.506,5.506,0,0,1,17.5,22Zm0-9A3.5,3.5,0,1,0,21,16.5,3.5,3.5,0,0,0,17.5,13Z"/><rect x="27.5" y="12.919" width="2" height="3.162" transform="translate(5.732 36.952) rotate(-71.565)"/><rect x="24.919" y="17.5" width="3.162" height="2" transform="matrix(0.949, -0.316, 0.316, 0.949, -4.492, 9.334)"/><rect x="29" y="20" width="3" height="2"/><rect x="31" y="17" width="3" height="2"/><path d="M41.071,17.372c-1.884-4.711-7.653-9.556-7.712-9.6l1.282-1.536c.253.21,6.217,5.221,8.288,10.4Z"/><rect x="17" y="16" width="2" height="2"/><rect x="1" y="27" width="11" height="2"/><path d="M20,38H10a1,1,0,0,1-.98-1.2C9.421,34.8,11.187,31,15,31s5.579,3.8,5.98,5.8A1,1,0,0,1,20,38Zm-8.636-2h7.279c-.5-1.242-1.58-3-3.643-3C12.954,33,11.872,34.76,11.364,36Z"/><path d="M44,38H34a1,1,0,0,1-.98-1.2C33.421,34.8,35.187,31,39,31s5.579,3.8,5.98,5.8A1,1,0,0,1,44,38Zm-8.636-2h7.279c-.5-1.242-1.58-3-3.643-3C36.954,33,35.872,34.76,35.364,36Z"/><path d="M27,38c-3.813,0-5.579-3.8-5.98-5.8A1,1,0,0,1,22,31H32a1,1,0,0,1,.98,1.2C32.579,34.2,30.812,38,27,38Zm-3.643-5c.5,1.242,1.58,3,3.643,3,2.046,0,3.128-1.76,3.636-3Z"/><path d="M2,38V36c2.046,0,3.128-1.76,3.636-3H2V31H7a1,1,0,0,1,.98,1.2C7.579,34.2,5.812,38,2,38Z"/><rect x="14" y="27" width="12" height="2"/><path d="M43.105,30.447C42.4,29.04,40.023,29,40,29H28V27H40c.147,0,3.633.029,4.9,2.553Z"/><rect x="2" y="40" width="10" height="2"/><rect x="14" y="40" width="12" height="2"/><rect x="28" y="40" width="16" height="2"/></g></svg>