<svg xmlns="http://www.w3.org/2000/svg" viewBox="0 0 512 512"><defs><style>.cls-1{fill:#a99bd4;}.cls-2{fill:#32314b;}.cls-3{fill:#9e4830;}.cls-4{fill:#dda026;}.cls-5{fill:#f7bb38;}.cls-6{fill:#bf8621;}.cls-7{fill:#a06d1c;}.cls-8{fill:#a65c3b;}.cls-9{fill:#7f3625;}.cls-10{fill:#e88032;}.cls-11{fill:#f2995c;}</style></defs><title>English Food</title><g id="BULINE"><circle class="cls-1" cx="256" cy="256" r="256"/></g><g id="Icons"><circle class="cls-2" cx="256" cy="256.15" r="226.85"/><path class="cls-3" d="M399.59,108.87s20.79,18.82,25,48c0,0-.41,11,17.92,27.34,0,0,23.86,28.3,19.22,71.89H252.29Z"/><path class="cls-4" d="M461.7,256.15c0,113.61-92.1,205.7-205.7,205.7S50.3,369.76,50.3,256.15,142.4,50.46,256,50.46a205,205,0,0,1,143.59,58.41l-18.53,18.51-18.85,18.86-51.86,51.85-1,1L268.46,240l-16.17,16.17Z"/><path class="cls-5" d="M334.16,256.15a77.16,77.16,0,0,1-1,12.34,72.8,72.8,0,0,1-1.92,8.8,78.24,78.24,0,0,1-58.12,55.13h0a78,78,0,0,1-25.39,1.46,74.89,74.89,0,0,1-8.89-1.46h0a78.16,78.16,0,0,1,8.85-154A81.34,81.34,0,0,1,256,178a77.87,77.87,0,0,1,52.68,20.42c.23.21.46.42.7.66L268.46,240l-16.17,16.17Z"/><circle class="cls-5" cx="346.41" cy="343.35" r="12.74"/><circle class="cls-5" cx="365.18" cy="324.58" r="9.03"/><path class="cls-6" d="M437.55,256.15H406.82a33.3,33.3,0,0,0,2.69,13.43A34.92,34.92,0,0,0,404.84,296a34.88,34.88,0,0,0-9.18,25.25,35,35,0,0,0-13.43,23.25A35,35,0,0,0,365,365.11a35,35,0,0,0-20.58,17.27,34.94,34.94,0,0,0-23.26,13.43A35,35,0,0,0,295.88,405a35,35,0,0,0-26.45,4.67,34.87,34.87,0,0,0-26.86,0A35,35,0,0,0,216.12,405a35,35,0,0,0-25.24-9.18,34.94,34.94,0,0,0-23.26-13.43A35,35,0,0,0,147,365.11a35,35,0,0,0-17.27-20.58,35,35,0,0,0-13.43-23.25A34.88,34.88,0,0,0,107.16,296a34.92,34.92,0,0,0-4.67-26.45,34.87,34.87,0,0,0,0-26.86,34.9,34.9,0,0,0,4.67-26.45A34.84,34.84,0,0,0,116.34,191a34.94,34.94,0,0,0,13.43-23.26A34.93,34.93,0,0,0,147,147.19a35,35,0,0,0,20.58-17.27,34.94,34.94,0,0,0,23.26-13.43,34.88,34.88,0,0,0,25.24-9.18,35,35,0,0,0,26.45-4.66,35,35,0,0,0,26.86,0,35,35,0,0,0,26.45,4.66,34.88,34.88,0,0,0,25.24,9.18,34.94,34.94,0,0,0,23.26,13.43A33.31,33.31,0,0,0,353,140.61a34.74,34.74,0,0,0,9.26,5.63l18.85-18.86a33.55,33.55,0,0,0-8.36-10.3A32.2,32.2,0,0,0,358.38,110,34.18,34.18,0,0,0,331.44,94.4,34.21,34.21,0,0,0,302.2,83.76a34.09,34.09,0,0,0-30.64-5.4,34.08,34.08,0,0,0-31.12,0,34.09,34.09,0,0,0-30.64,5.4A34.21,34.21,0,0,0,180.56,94.4,34.18,34.18,0,0,0,153.62,110a34.1,34.1,0,0,0-23.82,20,34.14,34.14,0,0,0-20,23.82,34.13,34.13,0,0,0-15.55,26.95A34.1,34.1,0,0,0,83.61,210,34.16,34.16,0,0,0,78.2,240.6a34.14,34.14,0,0,0,0,31.11,34.16,34.16,0,0,0,5.41,30.65,34.13,34.13,0,0,0,10.64,29.23,34.17,34.17,0,0,0,15.55,27,34.15,34.15,0,0,0,20,23.81,34.14,34.14,0,0,0,23.82,20,34.18,34.18,0,0,0,26.94,15.56,34.21,34.21,0,0,0,29.24,10.64,34.17,34.17,0,0,0,30.64,5.4,34.16,34.16,0,0,0,31.12,0,34.17,34.17,0,0,0,30.64-5.4,34.21,34.21,0,0,0,29.24-10.64,34.18,34.18,0,0,0,26.94-15.56,34.14,34.14,0,0,0,23.82-20,34.15,34.15,0,0,0,20-23.81,34.17,34.17,0,0,0,15.55-27,34.13,34.13,0,0,0,10.64-29.23,34.16,34.16,0,0,0,5.41-30.65A32.24,32.24,0,0,0,437.55,256.15Z"/><path class="cls-6" d="M222.73,434.6A204.14,204.14,0,0,0,290.56,459,208.15,208.15,0,0,1,256,461.85c-113.6,0-205.7-92.09-205.7-205.7S142.4,50.46,256,50.46a208.16,208.16,0,0,1,34.56,2.88,204.16,204.16,0,0,0-67.83,24.37,0,0,0,0,0,0,0,205.72,205.72,0,0,0,0,356.86S222.72,434.6,222.73,434.6Z"/><path class="cls-7" d="M151.78,367a30.63,30.63,0,0,0-4.74-1.84,35,35,0,0,0-17.27-20.58,35,35,0,0,0-13.43-23.25A34.88,34.88,0,0,0,107.16,296a34.92,34.92,0,0,0-4.67-26.45,34.87,34.87,0,0,0,0-26.86,34.9,34.9,0,0,0,4.67-26.45A34.84,34.84,0,0,0,116.34,191a34.94,34.94,0,0,0,13.43-23.26A34.93,34.93,0,0,0,147,147.19a29.65,29.65,0,0,0,4.74-1.84,206.54,206.54,0,0,1,70.94-67.63,31.37,31.37,0,0,0-12.92,6A34.21,34.21,0,0,0,180.56,94.4,34.18,34.18,0,0,0,153.62,110a34.1,34.1,0,0,0-23.82,20,34.14,34.14,0,0,0-20,23.82,34.13,34.13,0,0,0-15.55,26.95A34.1,34.1,0,0,0,83.61,210,34.16,34.16,0,0,0,78.2,240.6a34.14,34.14,0,0,0,0,31.11,34.16,34.16,0,0,0,5.41,30.65,34.13,34.13,0,0,0,10.64,29.23,34.17,34.17,0,0,0,15.55,27,34.15,34.15,0,0,0,20,23.81,34.14,34.14,0,0,0,23.82,20,34.18,34.18,0,0,0,26.94,15.56,34.21,34.21,0,0,0,29.24,10.64,31.49,31.49,0,0,0,12.92,6A206.35,206.35,0,0,1,151.78,367Z"/><path class="cls-6" d="M275.56,316.43c0,25.61-19.56,46.36-19.56,46.36S236.44,342,236.44,316.43,256,270.08,256,270.08,275.56,290.83,275.56,316.43Z"/><path class="cls-7" d="M244.9,316.43c0,17.93,9.58,33.47,15.33,41.17a61.69,61.69,0,0,1-4.23,5.19S236.44,342,236.44,316.43,256,270.08,256,270.08a62.37,62.37,0,0,1,4.23,5.18C254.48,283,244.9,298.51,244.9,316.43Z"/><path class="cls-6" d="M303,282.24c13.73,13.73,14.37,35.36,14.37,35.36S295.73,317,282,303.23s-14.37-35.36-14.37-35.36S289.26,268.51,303,282.24Z"/><path class="cls-6" d="M229.21,211.63C242.94,225.37,243.58,247,243.58,247s-21.63-.64-35.36-14.37-14.37-35.36-14.37-35.36S215.48,197.9,229.21,211.63Z"/><path class="cls-6" d="M208.22,282.24C194.49,296,193.85,317.6,193.85,317.6s21.63-.64,35.36-14.37,14.37-35.36,14.37-35.36S222,268.51,208.22,282.24Z"/><path class="cls-6" d="M310.35,198.09l-1,1L268.46,240c1.32-7.51,4.74-19.55,13.53-28.35,8.18-8.16,19.15-11.7,26.69-13.22Z"/><path class="cls-6" d="M275.56,195.7c0,25.6-19.56,46.35-19.56,46.35s-19.56-20.75-19.56-46.35S256,149.34,256,149.34,275.56,170.09,275.56,195.7Z"/><path class="cls-6" d="M190.08,278.46c-25.6,0-46.36-19.57-46.36-19.57s20.76-19.56,46.36-19.56,46.36,19.56,46.36,19.56S215.68,278.46,190.08,278.46Z"/><path class="cls-7" d="M236.43,258.89s-20.75,19.57-46.35,19.57-46.35-19.57-46.35-19.57,1.85-1.74,5.11-4.19c7.69,5.75,23.27,15.38,41.24,15.38s33.54-9.63,41.23-15.38A65.6,65.6,0,0,1,236.43,258.89Z"/><path class="cls-6" d="M366.65,258.89h0s0,0-.05,0l-.07.08c-1.47,1.33-16,14.31-35.25,18.27a53.3,53.3,0,0,1-11,1.17c-25.6,0-46.35-19.57-46.35-19.57l.37-.34,1-.83c.51-.44,1.14-1,1.9-1.57h86.24l.75.61.8.66.23.19c.14.13.28.24.41.34l.47.42.34.3,0,0,.11.11.06.05,0,0Z"/><path class="cls-7" d="M244.9,195.7c0,17.92,9.58,33.46,15.33,41.17a62.37,62.37,0,0,1-4.23,5.18s-19.56-20.75-19.56-46.35S256,149.34,256,149.34a62.37,62.37,0,0,1,4.23,5.18C254.48,162.23,244.9,177.77,244.9,195.7Z"/><path class="cls-7" d="M366.64,258.89h0s0,0-.05,0l-.07.08c-1.47,1.33-16,14.31-35.25,18.27a53.3,53.3,0,0,1-11,1.17c-25.6,0-46.35-19.57-46.35-19.57l.37-.34,1-.83c.51-.44,1.14-1,1.9-1.57h3.89c8.21,5.79,22.71,13.93,39.23,13.93a55,55,0,0,0,12.9-1.59,78.88,78.88,0,0,0,26.32-12.34h3.9l.75.61.8.66.23.19c.14.13.28.24.41.34l.47.42.34.3,0,0,.11.11.06.05Z"/><rect class="cls-8" x="361.28" y="150.95" width="33.04" height="33.04" rx="11.38" transform="translate(-35.43 162.93) rotate(-23.28)"/><rect class="cls-8" x="338.86" y="184.8" width="26.59" height="26.59" rx="6.72" transform="translate(166.79 -160.93) rotate(33.33)"/><rect class="cls-9" x="415.19" y="219.44" width="29.91" height="29.91" rx="7.55" transform="translate(590.21 -228.58) rotate(80.48)"/><rect class="cls-9" x="305.34" y="207.17" width="29.91" height="29.91" rx="7.55" transform="translate(486.42 -130.48) rotate(80.48)"/><rect class="cls-8" x="281.74" y="229.23" width="21.51" height="21.51" rx="5.43" transform="translate(480.82 -88.16) rotate(80.48)"/><rect class="cls-9" x="379.76" y="196.9" width="21.51" height="21.51" rx="5.43" transform="matrix(-0.51, 0.86, -0.86, -0.51, 767.58, -23.54)"/><rect class="cls-8" x="343.18" y="227.45" width="21.51" height="21.51" rx="5.43" transform="matrix(-0.51, 0.86, -0.86, -0.51, 738.76, 54.04)"/><circle class="cls-10" cx="424.56" cy="189.85" r="13"/><circle class="cls-11" cx="424.56" cy="189.85" r="5.59"/><circle class="cls-10" cx="380.99" cy="238.21" r="13"/><circle class="cls-11" cx="380.99" cy="238.21" r="5.59"/><circle class="cls-10" cx="401.29" cy="140.6" r="13"/><circle class="cls-11" cx="401.29" cy="140.6" r="5.59"/></g></svg>