<svg xmlns="http://www.w3.org/2000/svg" viewBox="0 0 512 512"><defs><style>.cls-1{fill:#854639;}.cls-2{fill:#7bba71;}.cls-3{fill:#87d18e;}.cls-4{fill:#fff;}.cls-5{fill:#99112e;}.cls-6{fill:#d93a46;}.cls-7{fill:#d9727e;}.cls-8{fill:#d7932a;}.cls-9{fill:#f0c788;}.cls-10{fill:#f6e0b8;}.cls-11{fill:#619e65;}.cls-12{fill:#c27135;}.cls-13{fill:#e17580;}.cls-14{fill:#313d74;}.cls-15{fill:#aadee6;}.cls-16{fill:#9ccccf;}.cls-17{fill:#87afaf;}.cls-18{fill:#cfd1d1;}</style></defs><title>Food</title><g id="BULINE"><circle class="cls-1" cx="256" cy="256" r="256"/></g><g id="Icons"><path class="cls-2" d="M177.55,190.16C190,160.81,153,148.93,153,148.93c-12-23.31-35.14-11.52-42.78-6.77-8.94,1-34.46,6.05-29.44,31.76,0,0-21.76,32.22,6.14,47.61,0,0-15,30.94,21.84,42.18,0,0,7.2,36,49.69,23.44l0,.09c.59-.2,1.16-.41,1.72-.63l1.74-.57,0-.09c41.15-16.41,24.58-49.14,24.58-49.14C208.48,205.2,177.55,190.16,177.55,190.16Z"/><path class="cls-3" d="M174.81,205.57a6.94,6.94,0,0,0-9.28,3.21L151.32,238l-9.48-27.41,20.28-41.74a6.93,6.93,0,0,0-3.21-9.27h0a6.94,6.94,0,0,0-9.28,3.21l-14.21,29.25-11.55-33.36a6.94,6.94,0,1,0-13.12,4.54l12.63,36.49L89.91,183.48a6.94,6.94,0,0,0-9.28,3.21h0A7,7,0,0,0,83.84,196l44.33,21.53a6.39,6.39,0,0,0,1.54.53l9.57,27.67-33.47-16.26a6.94,6.94,0,0,0-6.06,12.49l44.32,21.53a6.39,6.39,0,0,0,1.54.53l3.73,10.77a6.94,6.94,0,1,0,13.12-4.54l-4.72-13.64L178,214.84a6.93,6.93,0,0,0-3.21-9.27Z"/><path class="cls-2" d="M414.77,232.15c30.33-9.76,15.14-45.55,15.14-45.55,9.85-24.27-14.23-34.13-22.82-36.8-6.58-6.13-27.09-22.14-43.27-1.55,0,0-38.61,4.57-32,35.75,0,0-33.23,8.85-17.67,44.09,0,0-22.53,29,14.72,52.94l-.05.08,1.6.89c.51.32,1,.63,1.57.95l.05-.08c39.3,20.43,53.26-13.5,53.26-13.5C423.58,265.4,414.77,232.15,414.77,232.15Z"/><path class="cls-3" d="M401.31,240.15a6.94,6.94,0,0,0-8.49-4.93l-31.43,8.35,14.55-25.08,44.85-11.92a6.94,6.94,0,0,0,4.93-8.49h0a7,7,0,0,0-8.49-4.93l-31.44,8.35L403.51,171a6.94,6.94,0,1,0-12-7l-19.38,33.4-9.55-36a6.94,6.94,0,0,0-8.49-4.93h0a7,7,0,0,0-4.93,8.49l12.65,47.63a7.45,7.45,0,0,0,.61,1.51l-14.7,25.33-9.55-36a6.94,6.94,0,0,0-13.42,3.57L337.4,254.7a6.89,6.89,0,0,0,.6,1.51l-5.72,9.85a6.94,6.94,0,1,0,12,7l7.24-12.48,44.85-11.91a7,7,0,0,0,4.93-8.49Z"/><path class="cls-2" d="M272.45,195.82c19.76-25-12.79-46.27-12.79-46.27-5.33-25.64-30.82-20.43-39.44-17.87-8.89-1.42-34.83-3.3-36.81,22.82,0,0-29.53,25.29-6.71,47.53,0,0-22.68,25.85,9.88,46.46,0,0-2.59,36.59,41.7,35.78v.09l1.83-.14,1.83-.09V284c44-4.92,36.73-40.87,36.73-40.87C298.28,218.53,272.45,195.82,272.45,195.82Z"/><path class="cls-3" d="M265.72,210a7,7,0,0,0-9.8.64L234.46,235l-1.87-28.93,30.62-34.87a7,7,0,0,0-.64-9.8h0a6.93,6.93,0,0,0-9.79.63l-21.46,24.44L229,151.27a6.94,6.94,0,1,0-13.85.9l2.5,38.53-28-24.56a7,7,0,0,0-9.8.64h0a7,7,0,0,0,.64,9.8l37,32.52a7,7,0,0,0,1.34.91l1.89,29.22-27.95-24.55a6.94,6.94,0,1,0-9.17,10.43l37,32.52a7,7,0,0,0,1.35.92l.73,11.36a6.94,6.94,0,0,0,13.86-.9l-.94-14.39,30.63-34.87a7,7,0,0,0-.64-9.8Z"/><path class="cls-2" d="M355.32,213.43c27.36-16.32,4.53-47.79,4.53-47.79,4.15-25.86-21.52-30.07-30.49-30.75-7.8-4.49-31.37-15.49-42.53,8.21,0,0-36.59,13.12-23.19,42,0,0-30.4,16.08-7.32,46.93,0,0-15.45,33.27,26.22,48.28l0,.09c.6.19,1.18.35,1.76.52l1.75.57,0-.1c42.89,11.09,48.88-25.1,48.88-25.1C371.37,243.85,355.32,213.43,355.32,213.43Z"/><path class="cls-3" d="M344,224.24a6.94,6.94,0,0,0-9.38-2.9l-28.76,15.19,8.55-27.71,41-21.67a6.94,6.94,0,0,0,2.89-9.38h0a6.94,6.94,0,0,0-9.38-2.9l-28.75,15.19,10.41-33.73a6.94,6.94,0,1,0-13.27-4.09L306,189.13l-17.38-32.9a6.94,6.94,0,0,0-9.38-2.89h0a6.94,6.94,0,0,0-2.89,9.38l23,43.57a6.76,6.76,0,0,0,.92,1.34l-8.63,28-17.38-32.9A6.94,6.94,0,0,0,262,209.19l23,43.57a6.8,6.8,0,0,0,.93,1.34L282.55,265a6.94,6.94,0,0,0,13.27,4.1l4.25-13.79,41-21.67a6.94,6.94,0,0,0,2.9-9.38Z"/><ellipse class="cls-4" cx="255.54" cy="320.24" rx="205" ry="68.08"/><path class="cls-5" d="M440.63,222.06a2.59,2.59,0,0,1,3.58,1.07,54.94,54.94,0,0,1-95.51,54.05,2.59,2.59,0,0,1,.93-3.62Z"/><path class="cls-6" d="M356.42,269.71a44.48,44.48,0,0,0,77.42-43.8Z"/><path class="cls-7" d="M406.5,279.48a5.7,5.7,0,0,0,9.92-5.61c-1.55-2.74-6.78-6.8-9.52-5.25S405,276.74,406.5,279.48Z"/><path class="cls-7" d="M430.79,242.87a5.69,5.69,0,0,0-5.61-9.91c-2.74,1.54-6.8,6.77-5.25,9.51S428.05,244.42,430.79,242.87Z"/><path class="cls-7" d="M425.14,264.52a5.7,5.7,0,1,0,2.5-11.12c-3.07-.68-9.59.47-10.28,3.54S422.07,263.83,425.14,264.52Z"/><path class="cls-7" d="M372,276.14a5.7,5.7,0,0,1-5.61-9.92c2.74-1.54,9.31-2.33,10.86.4S374.73,274.59,372,276.14Z"/><path class="cls-7" d="M393.46,282.45a5.7,5.7,0,0,1-10.82-3.59c1-3,5.34-8,8.32-7S394.45,279.46,393.46,282.45Z"/><path class="cls-5" d="M141.79,278.67a2.59,2.59,0,0,1,.54,3.69A54.93,54.93,0,0,1,53,218.6a2.58,2.58,0,0,1,3.66-.69Z"/><path class="cls-6" d="M63,222.45a44.47,44.47,0,1,0,72.39,51.68Z"/><path class="cls-7" d="M75.33,272a5.7,5.7,0,1,0,9.27,6.62c1.83-2.56,3.31-9,.75-10.84S77.16,269.41,75.33,272Z"/><path class="cls-7" d="M118.77,278.53a5.7,5.7,0,0,0,6.62-9.27c-2.56-1.83-9-3.31-10.85-.75S116.21,276.7,118.77,278.53Z"/><path class="cls-7" d="M96.76,282.55a5.7,5.7,0,1,0,11.13-2.43c-.67-3.07-4.47-8.5-7.54-7.83S96.09,279.48,96.76,282.55Z"/><path class="cls-7" d="M63.79,239.28A5.7,5.7,0,0,1,70.41,230c2.56,1.83,6,7.46,4.22,10S66.35,241.1,63.79,239.28Z"/><path class="cls-7" d="M67.13,261.4a5.7,5.7,0,1,1-1.32-11.32c3.13-.36,9.49,1.47,9.86,4.59S70.25,261,67.13,261.4Z"/><path class="cls-5" d="M193.12,211.56a2.57,2.57,0,0,1,.38-3.71,54.93,54.93,0,0,1,71.1,83.58,2.58,2.58,0,0,1-3.72-.23Z"/><path class="cls-6" d="M255.82,285.26a44.48,44.48,0,0,0-57.64-67.75Z"/><path class="cls-7" d="M256,234.23a5.7,5.7,0,0,0-7.39-8.68c-2.39,2-5.39,7.95-3.35,10.34S253.55,236.27,256,234.23Z"/><path class="cls-7" d="M215.41,217.3a5.7,5.7,0,0,0-8.68,7.38c2,2.4,8,5.4,10.34,3.36S217.45,219.69,215.41,217.3Z"/><path class="cls-7" d="M237.74,218.75a5.7,5.7,0,0,0-11.39-.35c-.1,3.15,2.26,9.33,5.41,9.43S237.64,221.9,237.74,218.75Z"/><path class="cls-7" d="M259.19,268.75a5.7,5.7,0,0,1-8.68,7.39c-2-2.4-4.06-8.71-1.66-10.75S257.15,266.36,259.19,268.75Z"/><path class="cls-7" d="M261.33,246.48a5.7,5.7,0,0,1-1.48,11.3c-3.12-.41-8.85-3.73-8.44-6.85S258.21,246.07,261.33,246.48Z"/><rect class="cls-8" x="390.67" y="235.82" width="17.05" height="108" rx="8.52" transform="translate(803.8 7.61) rotate(109.12)"/><rect class="cls-9" x="107.54" y="242.24" width="17.05" height="108" rx="8.52" transform="translate(364.96 98.05) rotate(72.87)"/><rect class="cls-9" x="321.62" y="235.82" width="17.05" height="108" rx="8.52" transform="translate(731.33 110.83) rotate(114.68)"/><rect class="cls-10" x="228.69" y="250.25" width="17.05" height="108" rx="8.52" transform="translate(519.64 41.43) rotate(85)"/><rect class="cls-10" x="189.07" y="220.32" width="17.05" height="108" rx="8.52" transform="translate(519.2 170.13) rotate(107.82)"/><rect class="cls-10" x="282.52" y="220.32" width="17.05" height="108" rx="8.52" transform="translate(689.91 244.97) rotate(132.49)"/><rect class="cls-11" x="237.9" y="216.46" width="17.05" height="108" rx="8.52" transform="translate(612.31 271.42) rotate(132.49)"/><rect class="cls-11" x="177.78" y="197.88" width="17.05" height="108" rx="8.52" transform="translate(315.66 537.21) rotate(-167.9)"/><rect class="cls-11" x="265.78" y="210.31" width="17.05" height="108" rx="8.52" transform="translate(573.09 500.6) rotate(174.4)"/><rect class="cls-11" x="107.54" y="223.85" width="17.05" height="108" rx="8.52" transform="translate(406.17 358.56) rotate(128.22)"/><rect class="cls-11" x="339.17" y="205.67" width="17.05" height="108" rx="8.52" transform="translate(508.43 662.76) rotate(-148.49)"/><rect class="cls-10" x="390.67" y="244.37" width="17.05" height="108" rx="8.52" transform="translate(499 -189.91) rotate(64.78)"/><rect class="cls-12" x="359.69" y="228.74" width="17.05" height="108" rx="8.52" transform="matrix(0.32, 0.95, -0.95, 0.32, 518.33, -156.57)"/><rect class="cls-12" x="85.06" y="234.11" width="17.05" height="108" rx="8.52" transform="translate(387.99 216.74) rotate(94.37)"/><rect class="cls-12" x="124.76" y="228.74" width="17.05" height="108" rx="8.52" transform="translate(230.1 -14.47) rotate(43.28)"/><rect class="cls-12" x="282.52" y="210.31" width="17.05" height="108" rx="8.52" transform="translate(260.38 -127.64) rotate(43.28)"/><rect class="cls-12" x="174.86" y="237.77" width="17.05" height="108" rx="8.52" transform="translate(372.34 3.57) rotate(65.4)"/><rect class="cls-8" x="189.07" y="234.11" width="17.05" height="108" rx="8.52" transform="translate(477.96 79.68) rotate(87.82)"/><rect class="cls-13" x="308.08" y="208.3" width="17.05" height="108" rx="8.52" transform="translate(725.52 305.05) rotate(146.33)"/><rect class="cls-13" x="164.47" y="208.24" width="17.05" height="108" rx="8.52" transform="translate(462.36 384.56) rotate(146.33)"/><path class="cls-14" d="M458.92,412.08a256,256,0,0,1-405.84,0Z"/><path class="cls-15" d="M473.77,319.92a77.14,77.14,0,0,1-2.32,9.82,78.67,78.67,0,0,1-75.28,55.74H114.92a78.61,78.61,0,0,1-77.6-65.56,7.67,7.67,0,0,1-.12-1.34,7.87,7.87,0,0,1,7.87-7.84H466A7.87,7.87,0,0,1,473.77,319.92Z"/><path class="cls-16" d="M219.82,385.48H114.92a78.71,78.71,0,0,1-77.61-65.56,8.75,8.75,0,0,1-.11-1.34,7.87,7.87,0,0,1,7.87-7.84H150a7.87,7.87,0,0,0-7.87,7.84,7.67,7.67,0,0,0,.12,1.34A78.7,78.7,0,0,0,219.82,385.48Z"/><path class="cls-17" d="M111.89,385.48h287.3a0,0,0,0,1,0,0v10.26a16.35,16.35,0,0,1-16.35,16.35H128.24a16.35,16.35,0,0,1-16.35-16.35V385.48a0,0,0,0,1,0,0Z"/><path class="cls-4" d="M473.77,319.92a77.14,77.14,0,0,1-2.32,9.82H39.63a78.86,78.86,0,0,1-2.31-9.82,7.67,7.67,0,0,1-.12-1.34,7.87,7.87,0,0,1,7.87-7.84H466A7.87,7.87,0,0,1,473.77,319.92Z"/><path class="cls-18" d="M142.22,319.92a77.14,77.14,0,0,0,2.32,9.82H39.63s0-.05,0-.07l-.57-2c-.23-.83-.44-1.67-.65-2.52-.07-.29-.14-.58-.2-.87-.15-.62-.28-1.26-.4-1.88-.18-.83-.33-1.67-.47-2.51a7.67,7.67,0,0,1-.12-1.34,7.87,7.87,0,0,1,7.87-7.84H150a7.87,7.87,0,0,0-7.87,7.84A7.67,7.67,0,0,0,142.22,319.92Z"/><circle class="cls-9" cx="226.35" cy="300.1" r="9.26"/><circle class="cls-9" cx="300.3" cy="287.03" r="9.26"/><circle class="cls-9" cx="205.38" cy="261.44" r="9.26"/><circle class="cls-9" cx="95.09" cy="297.24" r="9.26"/><circle class="cls-9" cx="388.14" cy="298.37" r="9.26"/></g></svg>